%TF.GenerationSoftware,KiCad,Pcbnew,(5.0.2)-1*%
%TF.CreationDate,2019-03-05T14:35:33+01:00*%
%TF.ProjectId,ac-dc-converter-mp171,61632d64-632d-4636-9f6e-766572746572,rev?*%
%TF.SameCoordinates,Original*%
%TF.FileFunction,Soldermask,Top*%
%TF.FilePolarity,Negative*%
%FSLAX46Y46*%
G04 Gerber Fmt 4.6, Leading zero omitted, Abs format (unit mm)*
G04 Created by KiCad (PCBNEW (5.0.2)-1) date 05/03/2019 14:35:33*
%MOMM*%
%LPD*%
G01*
G04 APERTURE LIST*
%ADD10C,0.100000*%
G04 APERTURE END LIST*
D10*
G36*
X130923591Y-105840585D02*
X130957569Y-105850893D01*
X130988887Y-105867633D01*
X131016339Y-105890161D01*
X131038867Y-105917613D01*
X131055607Y-105948931D01*
X131065915Y-105982909D01*
X131070000Y-106024390D01*
X131070000Y-106700610D01*
X131065915Y-106742091D01*
X131055607Y-106776069D01*
X131038867Y-106807387D01*
X131016339Y-106834839D01*
X130988887Y-106857367D01*
X130957569Y-106874107D01*
X130923591Y-106884415D01*
X130882110Y-106888500D01*
X130280890Y-106888500D01*
X130239409Y-106884415D01*
X130205431Y-106874107D01*
X130174113Y-106857367D01*
X130146661Y-106834839D01*
X130124133Y-106807387D01*
X130107393Y-106776069D01*
X130097085Y-106742091D01*
X130093000Y-106700610D01*
X130093000Y-106024390D01*
X130097085Y-105982909D01*
X130107393Y-105948931D01*
X130124133Y-105917613D01*
X130146661Y-105890161D01*
X130174113Y-105867633D01*
X130205431Y-105850893D01*
X130239409Y-105840585D01*
X130280890Y-105836500D01*
X130882110Y-105836500D01*
X130923591Y-105840585D01*
X130923591Y-105840585D01*
G37*
G36*
X129348591Y-105840585D02*
X129382569Y-105850893D01*
X129413887Y-105867633D01*
X129441339Y-105890161D01*
X129463867Y-105917613D01*
X129480607Y-105948931D01*
X129490915Y-105982909D01*
X129495000Y-106024390D01*
X129495000Y-106700610D01*
X129490915Y-106742091D01*
X129480607Y-106776069D01*
X129463867Y-106807387D01*
X129441339Y-106834839D01*
X129413887Y-106857367D01*
X129382569Y-106874107D01*
X129348591Y-106884415D01*
X129307110Y-106888500D01*
X128705890Y-106888500D01*
X128664409Y-106884415D01*
X128630431Y-106874107D01*
X128599113Y-106857367D01*
X128571661Y-106834839D01*
X128549133Y-106807387D01*
X128532393Y-106776069D01*
X128522085Y-106742091D01*
X128518000Y-106700610D01*
X128518000Y-106024390D01*
X128522085Y-105982909D01*
X128532393Y-105948931D01*
X128549133Y-105917613D01*
X128571661Y-105890161D01*
X128599113Y-105867633D01*
X128630431Y-105850893D01*
X128664409Y-105840585D01*
X128705890Y-105836500D01*
X129307110Y-105836500D01*
X129348591Y-105840585D01*
X129348591Y-105840585D01*
G37*
G36*
X127737966Y-105362065D02*
X127776637Y-105373796D01*
X127812279Y-105392848D01*
X127843517Y-105418483D01*
X127869152Y-105449721D01*
X127888204Y-105485363D01*
X127899935Y-105524034D01*
X127904500Y-105570388D01*
X127904500Y-106646612D01*
X127899935Y-106692966D01*
X127888204Y-106731637D01*
X127869152Y-106767279D01*
X127843517Y-106798517D01*
X127812279Y-106824152D01*
X127776637Y-106843204D01*
X127737966Y-106854935D01*
X127691612Y-106859500D01*
X127040388Y-106859500D01*
X126994034Y-106854935D01*
X126955363Y-106843204D01*
X126919721Y-106824152D01*
X126888483Y-106798517D01*
X126862848Y-106767279D01*
X126843796Y-106731637D01*
X126832065Y-106692966D01*
X126827500Y-106646612D01*
X126827500Y-105570388D01*
X126832065Y-105524034D01*
X126843796Y-105485363D01*
X126862848Y-105449721D01*
X126888483Y-105418483D01*
X126919721Y-105392848D01*
X126955363Y-105373796D01*
X126994034Y-105362065D01*
X127040388Y-105357500D01*
X127691612Y-105357500D01*
X127737966Y-105362065D01*
X127737966Y-105362065D01*
G37*
G36*
X125862966Y-105362065D02*
X125901637Y-105373796D01*
X125937279Y-105392848D01*
X125968517Y-105418483D01*
X125994152Y-105449721D01*
X126013204Y-105485363D01*
X126024935Y-105524034D01*
X126029500Y-105570388D01*
X126029500Y-106646612D01*
X126024935Y-106692966D01*
X126013204Y-106731637D01*
X125994152Y-106767279D01*
X125968517Y-106798517D01*
X125937279Y-106824152D01*
X125901637Y-106843204D01*
X125862966Y-106854935D01*
X125816612Y-106859500D01*
X125165388Y-106859500D01*
X125119034Y-106854935D01*
X125080363Y-106843204D01*
X125044721Y-106824152D01*
X125013483Y-106798517D01*
X124987848Y-106767279D01*
X124968796Y-106731637D01*
X124957065Y-106692966D01*
X124952500Y-106646612D01*
X124952500Y-105570388D01*
X124957065Y-105524034D01*
X124968796Y-105485363D01*
X124987848Y-105449721D01*
X125013483Y-105418483D01*
X125044721Y-105392848D01*
X125080363Y-105373796D01*
X125119034Y-105362065D01*
X125165388Y-105357500D01*
X125816612Y-105357500D01*
X125862966Y-105362065D01*
X125862966Y-105362065D01*
G37*
G36*
X141210591Y-105650085D02*
X141244569Y-105660393D01*
X141275887Y-105677133D01*
X141303339Y-105699661D01*
X141325867Y-105727113D01*
X141342607Y-105758431D01*
X141352915Y-105792409D01*
X141357000Y-105833890D01*
X141357000Y-106510110D01*
X141352915Y-106551591D01*
X141342607Y-106585569D01*
X141325867Y-106616887D01*
X141303339Y-106644339D01*
X141275887Y-106666867D01*
X141244569Y-106683607D01*
X141210591Y-106693915D01*
X141169110Y-106698000D01*
X140567890Y-106698000D01*
X140526409Y-106693915D01*
X140492431Y-106683607D01*
X140461113Y-106666867D01*
X140433661Y-106644339D01*
X140411133Y-106616887D01*
X140394393Y-106585569D01*
X140384085Y-106551591D01*
X140380000Y-106510110D01*
X140380000Y-105833890D01*
X140384085Y-105792409D01*
X140394393Y-105758431D01*
X140411133Y-105727113D01*
X140433661Y-105699661D01*
X140461113Y-105677133D01*
X140492431Y-105660393D01*
X140526409Y-105650085D01*
X140567890Y-105646000D01*
X141169110Y-105646000D01*
X141210591Y-105650085D01*
X141210591Y-105650085D01*
G37*
G36*
X139635591Y-105650085D02*
X139669569Y-105660393D01*
X139700887Y-105677133D01*
X139728339Y-105699661D01*
X139750867Y-105727113D01*
X139767607Y-105758431D01*
X139777915Y-105792409D01*
X139782000Y-105833890D01*
X139782000Y-106510110D01*
X139777915Y-106551591D01*
X139767607Y-106585569D01*
X139750867Y-106616887D01*
X139728339Y-106644339D01*
X139700887Y-106666867D01*
X139669569Y-106683607D01*
X139635591Y-106693915D01*
X139594110Y-106698000D01*
X138992890Y-106698000D01*
X138951409Y-106693915D01*
X138917431Y-106683607D01*
X138886113Y-106666867D01*
X138858661Y-106644339D01*
X138836133Y-106616887D01*
X138819393Y-106585569D01*
X138809085Y-106551591D01*
X138805000Y-106510110D01*
X138805000Y-105833890D01*
X138809085Y-105792409D01*
X138819393Y-105758431D01*
X138836133Y-105727113D01*
X138858661Y-105699661D01*
X138886113Y-105677133D01*
X138917431Y-105660393D01*
X138951409Y-105650085D01*
X138992890Y-105646000D01*
X139594110Y-105646000D01*
X139635591Y-105650085D01*
X139635591Y-105650085D01*
G37*
G36*
X135157500Y-106395000D02*
X133955500Y-106395000D01*
X133955500Y-105193000D01*
X135157500Y-105193000D01*
X135157500Y-106395000D01*
X135157500Y-106395000D01*
G37*
G36*
X132918466Y-105115065D02*
X132957137Y-105126796D01*
X132992779Y-105145848D01*
X133024017Y-105171483D01*
X133049652Y-105202721D01*
X133068704Y-105238363D01*
X133080435Y-105277034D01*
X133085000Y-105323388D01*
X133085000Y-105974612D01*
X133080435Y-106020966D01*
X133068704Y-106059637D01*
X133049652Y-106095279D01*
X133024017Y-106126517D01*
X132992779Y-106152152D01*
X132957137Y-106171204D01*
X132918466Y-106182935D01*
X132872112Y-106187500D01*
X131795888Y-106187500D01*
X131749534Y-106182935D01*
X131710863Y-106171204D01*
X131675221Y-106152152D01*
X131643983Y-106126517D01*
X131618348Y-106095279D01*
X131599296Y-106059637D01*
X131587565Y-106020966D01*
X131583000Y-105974612D01*
X131583000Y-105323388D01*
X131587565Y-105277034D01*
X131599296Y-105238363D01*
X131618348Y-105202721D01*
X131643983Y-105171483D01*
X131675221Y-105145848D01*
X131710863Y-105126796D01*
X131749534Y-105115065D01*
X131795888Y-105110500D01*
X132872112Y-105110500D01*
X132918466Y-105115065D01*
X132918466Y-105115065D01*
G37*
G36*
X137426966Y-104289565D02*
X137465637Y-104301296D01*
X137501279Y-104320348D01*
X137532517Y-104345983D01*
X137558152Y-104377221D01*
X137577204Y-104412863D01*
X137588935Y-104451534D01*
X137593500Y-104497888D01*
X137593500Y-105149112D01*
X137588935Y-105195466D01*
X137577204Y-105234137D01*
X137558152Y-105269779D01*
X137532517Y-105301017D01*
X137501279Y-105326652D01*
X137465637Y-105345704D01*
X137426966Y-105357435D01*
X137380612Y-105362000D01*
X136304388Y-105362000D01*
X136258034Y-105357435D01*
X136219363Y-105345704D01*
X136183721Y-105326652D01*
X136152483Y-105301017D01*
X136126848Y-105269779D01*
X136107796Y-105234137D01*
X136096065Y-105195466D01*
X136091500Y-105149112D01*
X136091500Y-104497888D01*
X136096065Y-104451534D01*
X136107796Y-104412863D01*
X136126848Y-104377221D01*
X136152483Y-104345983D01*
X136183721Y-104320348D01*
X136219363Y-104301296D01*
X136258034Y-104289565D01*
X136304388Y-104285000D01*
X137380612Y-104285000D01*
X137426966Y-104289565D01*
X137426966Y-104289565D01*
G37*
G36*
X129348591Y-104189585D02*
X129382569Y-104199893D01*
X129413887Y-104216633D01*
X129441339Y-104239161D01*
X129463867Y-104266613D01*
X129480607Y-104297931D01*
X129490915Y-104331909D01*
X129495000Y-104373390D01*
X129495000Y-105049610D01*
X129490915Y-105091091D01*
X129480607Y-105125069D01*
X129463867Y-105156387D01*
X129441339Y-105183839D01*
X129413887Y-105206367D01*
X129382569Y-105223107D01*
X129348591Y-105233415D01*
X129307110Y-105237500D01*
X128705890Y-105237500D01*
X128664409Y-105233415D01*
X128630431Y-105223107D01*
X128599113Y-105206367D01*
X128571661Y-105183839D01*
X128549133Y-105156387D01*
X128532393Y-105125069D01*
X128522085Y-105091091D01*
X128518000Y-105049610D01*
X128518000Y-104373390D01*
X128522085Y-104331909D01*
X128532393Y-104297931D01*
X128549133Y-104266613D01*
X128571661Y-104239161D01*
X128599113Y-104216633D01*
X128630431Y-104199893D01*
X128664409Y-104189585D01*
X128705890Y-104185500D01*
X129307110Y-104185500D01*
X129348591Y-104189585D01*
X129348591Y-104189585D01*
G37*
G36*
X130923591Y-104189585D02*
X130957569Y-104199893D01*
X130988887Y-104216633D01*
X131016339Y-104239161D01*
X131038867Y-104266613D01*
X131055607Y-104297931D01*
X131065915Y-104331909D01*
X131070000Y-104373390D01*
X131070000Y-105049610D01*
X131065915Y-105091091D01*
X131055607Y-105125069D01*
X131038867Y-105156387D01*
X131016339Y-105183839D01*
X130988887Y-105206367D01*
X130957569Y-105223107D01*
X130923591Y-105233415D01*
X130882110Y-105237500D01*
X130280890Y-105237500D01*
X130239409Y-105233415D01*
X130205431Y-105223107D01*
X130174113Y-105206367D01*
X130146661Y-105183839D01*
X130124133Y-105156387D01*
X130107393Y-105125069D01*
X130097085Y-105091091D01*
X130093000Y-105049610D01*
X130093000Y-104373390D01*
X130097085Y-104331909D01*
X130107393Y-104297931D01*
X130124133Y-104266613D01*
X130146661Y-104239161D01*
X130174113Y-104216633D01*
X130205431Y-104199893D01*
X130239409Y-104189585D01*
X130280890Y-104185500D01*
X130882110Y-104185500D01*
X130923591Y-104189585D01*
X130923591Y-104189585D01*
G37*
G36*
X139698591Y-104087585D02*
X139732569Y-104097893D01*
X139763887Y-104114633D01*
X139791339Y-104137161D01*
X139813867Y-104164613D01*
X139830607Y-104195931D01*
X139840915Y-104229909D01*
X139845000Y-104271390D01*
X139845000Y-104872610D01*
X139840915Y-104914091D01*
X139830607Y-104948069D01*
X139813867Y-104979387D01*
X139791339Y-105006839D01*
X139763887Y-105029367D01*
X139732569Y-105046107D01*
X139698591Y-105056415D01*
X139657110Y-105060500D01*
X138980890Y-105060500D01*
X138939409Y-105056415D01*
X138905431Y-105046107D01*
X138874113Y-105029367D01*
X138846661Y-105006839D01*
X138824133Y-104979387D01*
X138807393Y-104948069D01*
X138797085Y-104914091D01*
X138793000Y-104872610D01*
X138793000Y-104271390D01*
X138797085Y-104229909D01*
X138807393Y-104195931D01*
X138824133Y-104164613D01*
X138846661Y-104137161D01*
X138874113Y-104114633D01*
X138905431Y-104097893D01*
X138939409Y-104087585D01*
X138980890Y-104083500D01*
X139657110Y-104083500D01*
X139698591Y-104087585D01*
X139698591Y-104087585D01*
G37*
G36*
X143141000Y-105041000D02*
X141339000Y-105041000D01*
X141339000Y-103239000D01*
X143141000Y-103239000D01*
X143141000Y-105041000D01*
X143141000Y-105041000D01*
G37*
G36*
X110121000Y-105041000D02*
X108319000Y-105041000D01*
X108319000Y-103239000D01*
X110121000Y-103239000D01*
X110121000Y-105041000D01*
X110121000Y-105041000D01*
G37*
G36*
X121406228Y-103321703D02*
X121561100Y-103385853D01*
X121700481Y-103478985D01*
X121819015Y-103597519D01*
X121912147Y-103736900D01*
X121976297Y-103891772D01*
X122009000Y-104056184D01*
X122009000Y-104223816D01*
X121976297Y-104388228D01*
X121912147Y-104543100D01*
X121819015Y-104682481D01*
X121700481Y-104801015D01*
X121561100Y-104894147D01*
X121406228Y-104958297D01*
X121241816Y-104991000D01*
X121074184Y-104991000D01*
X120909772Y-104958297D01*
X120754900Y-104894147D01*
X120615519Y-104801015D01*
X120496985Y-104682481D01*
X120403853Y-104543100D01*
X120339703Y-104388228D01*
X120307000Y-104223816D01*
X120307000Y-104056184D01*
X120339703Y-103891772D01*
X120403853Y-103736900D01*
X120496985Y-103597519D01*
X120615519Y-103478985D01*
X120754900Y-103385853D01*
X120909772Y-103321703D01*
X121074184Y-103289000D01*
X121241816Y-103289000D01*
X121406228Y-103321703D01*
X121406228Y-103321703D01*
G37*
G36*
X114548228Y-103321703D02*
X114703100Y-103385853D01*
X114842481Y-103478985D01*
X114961015Y-103597519D01*
X115054147Y-103736900D01*
X115118297Y-103891772D01*
X115151000Y-104056184D01*
X115151000Y-104223816D01*
X115118297Y-104388228D01*
X115054147Y-104543100D01*
X114961015Y-104682481D01*
X114842481Y-104801015D01*
X114703100Y-104894147D01*
X114548228Y-104958297D01*
X114383816Y-104991000D01*
X114216184Y-104991000D01*
X114051772Y-104958297D01*
X113896900Y-104894147D01*
X113757519Y-104801015D01*
X113638985Y-104682481D01*
X113545853Y-104543100D01*
X113481703Y-104388228D01*
X113449000Y-104223816D01*
X113449000Y-104056184D01*
X113481703Y-103891772D01*
X113545853Y-103736900D01*
X113638985Y-103597519D01*
X113757519Y-103478985D01*
X113896900Y-103385853D01*
X114051772Y-103321703D01*
X114216184Y-103289000D01*
X114383816Y-103289000D01*
X114548228Y-103321703D01*
X114548228Y-103321703D01*
G37*
G36*
X132918466Y-103240065D02*
X132957137Y-103251796D01*
X132992779Y-103270848D01*
X133024017Y-103296483D01*
X133049652Y-103327721D01*
X133068704Y-103363363D01*
X133080435Y-103402034D01*
X133085000Y-103448388D01*
X133085000Y-104099612D01*
X133080435Y-104145966D01*
X133068704Y-104184637D01*
X133049652Y-104220279D01*
X133024017Y-104251517D01*
X132992779Y-104277152D01*
X132957137Y-104296204D01*
X132918466Y-104307935D01*
X132872112Y-104312500D01*
X131795888Y-104312500D01*
X131749534Y-104307935D01*
X131710863Y-104296204D01*
X131675221Y-104277152D01*
X131643983Y-104251517D01*
X131618348Y-104220279D01*
X131599296Y-104184637D01*
X131587565Y-104145966D01*
X131583000Y-104099612D01*
X131583000Y-103448388D01*
X131587565Y-103402034D01*
X131599296Y-103363363D01*
X131618348Y-103327721D01*
X131643983Y-103296483D01*
X131675221Y-103270848D01*
X131710863Y-103251796D01*
X131749534Y-103240065D01*
X131795888Y-103235500D01*
X132872112Y-103235500D01*
X132918466Y-103240065D01*
X132918466Y-103240065D01*
G37*
G36*
X127754500Y-103825000D02*
X125102500Y-103825000D01*
X125102500Y-102503000D01*
X127754500Y-102503000D01*
X127754500Y-103825000D01*
X127754500Y-103825000D01*
G37*
G36*
X135157500Y-103595000D02*
X133955500Y-103595000D01*
X133955500Y-102393000D01*
X135157500Y-102393000D01*
X135157500Y-103595000D01*
X135157500Y-103595000D01*
G37*
G36*
X130923591Y-102475085D02*
X130957569Y-102485393D01*
X130988887Y-102502133D01*
X131016339Y-102524661D01*
X131038867Y-102552113D01*
X131055607Y-102583431D01*
X131065915Y-102617409D01*
X131070000Y-102658890D01*
X131070000Y-103335110D01*
X131065915Y-103376591D01*
X131055607Y-103410569D01*
X131038867Y-103441887D01*
X131016339Y-103469339D01*
X130988887Y-103491867D01*
X130957569Y-103508607D01*
X130923591Y-103518915D01*
X130882110Y-103523000D01*
X130280890Y-103523000D01*
X130239409Y-103518915D01*
X130205431Y-103508607D01*
X130174113Y-103491867D01*
X130146661Y-103469339D01*
X130124133Y-103441887D01*
X130107393Y-103410569D01*
X130097085Y-103376591D01*
X130093000Y-103335110D01*
X130093000Y-102658890D01*
X130097085Y-102617409D01*
X130107393Y-102583431D01*
X130124133Y-102552113D01*
X130146661Y-102524661D01*
X130174113Y-102502133D01*
X130205431Y-102485393D01*
X130239409Y-102475085D01*
X130280890Y-102471000D01*
X130882110Y-102471000D01*
X130923591Y-102475085D01*
X130923591Y-102475085D01*
G37*
G36*
X129348591Y-102475085D02*
X129382569Y-102485393D01*
X129413887Y-102502133D01*
X129441339Y-102524661D01*
X129463867Y-102552113D01*
X129480607Y-102583431D01*
X129490915Y-102617409D01*
X129495000Y-102658890D01*
X129495000Y-103335110D01*
X129490915Y-103376591D01*
X129480607Y-103410569D01*
X129463867Y-103441887D01*
X129441339Y-103469339D01*
X129413887Y-103491867D01*
X129382569Y-103508607D01*
X129348591Y-103518915D01*
X129307110Y-103523000D01*
X128705890Y-103523000D01*
X128664409Y-103518915D01*
X128630431Y-103508607D01*
X128599113Y-103491867D01*
X128571661Y-103469339D01*
X128549133Y-103441887D01*
X128532393Y-103410569D01*
X128522085Y-103376591D01*
X128518000Y-103335110D01*
X128518000Y-102658890D01*
X128522085Y-102617409D01*
X128532393Y-102583431D01*
X128549133Y-102552113D01*
X128571661Y-102524661D01*
X128599113Y-102502133D01*
X128630431Y-102485393D01*
X128664409Y-102475085D01*
X128705890Y-102471000D01*
X129307110Y-102471000D01*
X129348591Y-102475085D01*
X129348591Y-102475085D01*
G37*
G36*
X137426966Y-102414565D02*
X137465637Y-102426296D01*
X137501279Y-102445348D01*
X137532517Y-102470983D01*
X137558152Y-102502221D01*
X137577204Y-102537863D01*
X137588935Y-102576534D01*
X137593500Y-102622888D01*
X137593500Y-103274112D01*
X137588935Y-103320466D01*
X137577204Y-103359137D01*
X137558152Y-103394779D01*
X137532517Y-103426017D01*
X137501279Y-103451652D01*
X137465637Y-103470704D01*
X137426966Y-103482435D01*
X137380612Y-103487000D01*
X136304388Y-103487000D01*
X136258034Y-103482435D01*
X136219363Y-103470704D01*
X136183721Y-103451652D01*
X136152483Y-103426017D01*
X136126848Y-103394779D01*
X136107796Y-103359137D01*
X136096065Y-103320466D01*
X136091500Y-103274112D01*
X136091500Y-102622888D01*
X136096065Y-102576534D01*
X136107796Y-102537863D01*
X136126848Y-102502221D01*
X136152483Y-102470983D01*
X136183721Y-102445348D01*
X136219363Y-102426296D01*
X136258034Y-102414565D01*
X136304388Y-102410000D01*
X137380612Y-102410000D01*
X137426966Y-102414565D01*
X137426966Y-102414565D01*
G37*
G36*
X139698591Y-102512585D02*
X139732569Y-102522893D01*
X139763887Y-102539633D01*
X139791339Y-102562161D01*
X139813867Y-102589613D01*
X139830607Y-102620931D01*
X139840915Y-102654909D01*
X139845000Y-102696390D01*
X139845000Y-103297610D01*
X139840915Y-103339091D01*
X139830607Y-103373069D01*
X139813867Y-103404387D01*
X139791339Y-103431839D01*
X139763887Y-103454367D01*
X139732569Y-103471107D01*
X139698591Y-103481415D01*
X139657110Y-103485500D01*
X138980890Y-103485500D01*
X138939409Y-103481415D01*
X138905431Y-103471107D01*
X138874113Y-103454367D01*
X138846661Y-103431839D01*
X138824133Y-103404387D01*
X138807393Y-103373069D01*
X138797085Y-103339091D01*
X138793000Y-103297610D01*
X138793000Y-102696390D01*
X138797085Y-102654909D01*
X138807393Y-102620931D01*
X138824133Y-102589613D01*
X138846661Y-102562161D01*
X138874113Y-102539633D01*
X138905431Y-102522893D01*
X138939409Y-102512585D01*
X138980890Y-102508500D01*
X139657110Y-102508500D01*
X139698591Y-102512585D01*
X139698591Y-102512585D01*
G37*
G36*
X115151000Y-102491000D02*
X113449000Y-102491000D01*
X113449000Y-100789000D01*
X115151000Y-100789000D01*
X115151000Y-102491000D01*
X115151000Y-102491000D01*
G37*
G36*
X122009000Y-102491000D02*
X120307000Y-102491000D01*
X120307000Y-100789000D01*
X122009000Y-100789000D01*
X122009000Y-102491000D01*
X122009000Y-102491000D01*
G37*
G36*
X139775604Y-100486847D02*
X139812145Y-100497932D01*
X139845820Y-100515931D01*
X139875341Y-100540159D01*
X139899569Y-100569680D01*
X139917568Y-100603355D01*
X139928653Y-100639896D01*
X139933000Y-100684038D01*
X139933000Y-101632962D01*
X139928653Y-101677104D01*
X139917568Y-101713645D01*
X139899569Y-101747320D01*
X139875341Y-101776841D01*
X139845820Y-101801069D01*
X139812145Y-101819068D01*
X139775604Y-101830153D01*
X139731462Y-101834500D01*
X137382538Y-101834500D01*
X137338396Y-101830153D01*
X137301855Y-101819068D01*
X137268180Y-101801069D01*
X137238659Y-101776841D01*
X137214431Y-101747320D01*
X137196432Y-101713645D01*
X137185347Y-101677104D01*
X137181000Y-101632962D01*
X137181000Y-100684038D01*
X137185347Y-100639896D01*
X137196432Y-100603355D01*
X137214431Y-100569680D01*
X137238659Y-100540159D01*
X137268180Y-100515931D01*
X137301855Y-100497932D01*
X137338396Y-100486847D01*
X137382538Y-100482500D01*
X139731462Y-100482500D01*
X139775604Y-100486847D01*
X139775604Y-100486847D01*
G37*
G36*
X136373966Y-99837565D02*
X136412637Y-99849296D01*
X136448279Y-99868348D01*
X136479517Y-99893983D01*
X136505152Y-99925221D01*
X136524204Y-99960863D01*
X136535935Y-99999534D01*
X136540500Y-100045888D01*
X136540500Y-101122112D01*
X136535935Y-101168466D01*
X136524204Y-101207137D01*
X136505152Y-101242779D01*
X136479517Y-101274017D01*
X136448279Y-101299652D01*
X136412637Y-101318704D01*
X136373966Y-101330435D01*
X136327612Y-101335000D01*
X135676388Y-101335000D01*
X135630034Y-101330435D01*
X135591363Y-101318704D01*
X135555721Y-101299652D01*
X135524483Y-101274017D01*
X135498848Y-101242779D01*
X135479796Y-101207137D01*
X135468065Y-101168466D01*
X135463500Y-101122112D01*
X135463500Y-100045888D01*
X135468065Y-99999534D01*
X135479796Y-99960863D01*
X135498848Y-99925221D01*
X135524483Y-99893983D01*
X135555721Y-99868348D01*
X135591363Y-99849296D01*
X135630034Y-99837565D01*
X135676388Y-99833000D01*
X136327612Y-99833000D01*
X136373966Y-99837565D01*
X136373966Y-99837565D01*
G37*
G36*
X134498966Y-99837565D02*
X134537637Y-99849296D01*
X134573279Y-99868348D01*
X134604517Y-99893983D01*
X134630152Y-99925221D01*
X134649204Y-99960863D01*
X134660935Y-99999534D01*
X134665500Y-100045888D01*
X134665500Y-101122112D01*
X134660935Y-101168466D01*
X134649204Y-101207137D01*
X134630152Y-101242779D01*
X134604517Y-101274017D01*
X134573279Y-101299652D01*
X134537637Y-101318704D01*
X134498966Y-101330435D01*
X134452612Y-101335000D01*
X133801388Y-101335000D01*
X133755034Y-101330435D01*
X133716363Y-101318704D01*
X133680721Y-101299652D01*
X133649483Y-101274017D01*
X133623848Y-101242779D01*
X133604796Y-101207137D01*
X133593065Y-101168466D01*
X133588500Y-101122112D01*
X133588500Y-100045888D01*
X133593065Y-99999534D01*
X133604796Y-99960863D01*
X133623848Y-99925221D01*
X133649483Y-99893983D01*
X133680721Y-99868348D01*
X133716363Y-99849296D01*
X133755034Y-99837565D01*
X133801388Y-99833000D01*
X134452612Y-99833000D01*
X134498966Y-99837565D01*
X134498966Y-99837565D01*
G37*
G36*
X127754500Y-101205000D02*
X127002500Y-101205000D01*
X127002500Y-99883000D01*
X127754500Y-99883000D01*
X127754500Y-101205000D01*
X127754500Y-101205000D01*
G37*
G36*
X125854500Y-101205000D02*
X125102500Y-101205000D01*
X125102500Y-99883000D01*
X125854500Y-99883000D01*
X125854500Y-101205000D01*
X125854500Y-101205000D01*
G37*
G36*
X132560000Y-101185000D02*
X131358000Y-101185000D01*
X131358000Y-99983000D01*
X132560000Y-99983000D01*
X132560000Y-101185000D01*
X132560000Y-101185000D01*
G37*
G36*
X129760000Y-101185000D02*
X128558000Y-101185000D01*
X128558000Y-99983000D01*
X129760000Y-99983000D01*
X129760000Y-101185000D01*
X129760000Y-101185000D01*
G37*
G36*
X143141000Y-99961000D02*
X141339000Y-99961000D01*
X141339000Y-98159000D01*
X143141000Y-98159000D01*
X143141000Y-99961000D01*
X143141000Y-99961000D01*
G37*
G36*
X110121000Y-99961000D02*
X108319000Y-99961000D01*
X108319000Y-98159000D01*
X110121000Y-98159000D01*
X110121000Y-99961000D01*
X110121000Y-99961000D01*
G37*
G36*
X116847604Y-96672347D02*
X116884145Y-96683432D01*
X116917820Y-96701431D01*
X116947341Y-96725659D01*
X116971569Y-96755180D01*
X116989568Y-96788855D01*
X117000653Y-96825396D01*
X117005000Y-96869538D01*
X117005000Y-99218462D01*
X117000653Y-99262604D01*
X116989568Y-99299145D01*
X116971569Y-99332820D01*
X116947341Y-99362341D01*
X116917820Y-99386569D01*
X116884145Y-99404568D01*
X116847604Y-99415653D01*
X116803462Y-99420000D01*
X115854538Y-99420000D01*
X115810396Y-99415653D01*
X115773855Y-99404568D01*
X115740180Y-99386569D01*
X115710659Y-99362341D01*
X115686431Y-99332820D01*
X115668432Y-99299145D01*
X115657347Y-99262604D01*
X115653000Y-99218462D01*
X115653000Y-96869538D01*
X115657347Y-96825396D01*
X115668432Y-96788855D01*
X115686431Y-96755180D01*
X115710659Y-96725659D01*
X115740180Y-96701431D01*
X115773855Y-96683432D01*
X115810396Y-96672347D01*
X115854538Y-96668000D01*
X116803462Y-96668000D01*
X116847604Y-96672347D01*
X116847604Y-96672347D01*
G37*
G36*
X119647604Y-96672347D02*
X119684145Y-96683432D01*
X119717820Y-96701431D01*
X119747341Y-96725659D01*
X119771569Y-96755180D01*
X119789568Y-96788855D01*
X119800653Y-96825396D01*
X119805000Y-96869538D01*
X119805000Y-99218462D01*
X119800653Y-99262604D01*
X119789568Y-99299145D01*
X119771569Y-99332820D01*
X119747341Y-99362341D01*
X119717820Y-99386569D01*
X119684145Y-99404568D01*
X119647604Y-99415653D01*
X119603462Y-99420000D01*
X118654538Y-99420000D01*
X118610396Y-99415653D01*
X118573855Y-99404568D01*
X118540180Y-99386569D01*
X118510659Y-99362341D01*
X118486431Y-99332820D01*
X118468432Y-99299145D01*
X118457347Y-99262604D01*
X118453000Y-99218462D01*
X118453000Y-96869538D01*
X118457347Y-96825396D01*
X118468432Y-96788855D01*
X118486431Y-96755180D01*
X118510659Y-96725659D01*
X118540180Y-96701431D01*
X118573855Y-96683432D01*
X118610396Y-96672347D01*
X118654538Y-96668000D01*
X119603462Y-96668000D01*
X119647604Y-96672347D01*
X119647604Y-96672347D01*
G37*
G36*
X136475104Y-96291347D02*
X136511645Y-96302432D01*
X136545320Y-96320431D01*
X136574841Y-96344659D01*
X136599069Y-96374180D01*
X136617068Y-96407855D01*
X136628153Y-96444396D01*
X136632500Y-96488538D01*
X136632500Y-98837462D01*
X136628153Y-98881604D01*
X136617068Y-98918145D01*
X136599069Y-98951820D01*
X136574841Y-98981341D01*
X136545320Y-99005569D01*
X136511645Y-99023568D01*
X136475104Y-99034653D01*
X136430962Y-99039000D01*
X135482038Y-99039000D01*
X135437896Y-99034653D01*
X135401355Y-99023568D01*
X135367680Y-99005569D01*
X135338159Y-98981341D01*
X135313931Y-98951820D01*
X135295932Y-98918145D01*
X135284847Y-98881604D01*
X135280500Y-98837462D01*
X135280500Y-96488538D01*
X135284847Y-96444396D01*
X135295932Y-96407855D01*
X135313931Y-96374180D01*
X135338159Y-96344659D01*
X135367680Y-96320431D01*
X135401355Y-96302432D01*
X135437896Y-96291347D01*
X135482038Y-96287000D01*
X136430962Y-96287000D01*
X136475104Y-96291347D01*
X136475104Y-96291347D01*
G37*
G36*
X133675104Y-96291347D02*
X133711645Y-96302432D01*
X133745320Y-96320431D01*
X133774841Y-96344659D01*
X133799069Y-96374180D01*
X133817068Y-96407855D01*
X133828153Y-96444396D01*
X133832500Y-96488538D01*
X133832500Y-98837462D01*
X133828153Y-98881604D01*
X133817068Y-98918145D01*
X133799069Y-98951820D01*
X133774841Y-98981341D01*
X133745320Y-99005569D01*
X133711645Y-99023568D01*
X133675104Y-99034653D01*
X133630962Y-99039000D01*
X132682038Y-99039000D01*
X132637896Y-99034653D01*
X132601355Y-99023568D01*
X132567680Y-99005569D01*
X132538159Y-98981341D01*
X132513931Y-98951820D01*
X132495932Y-98918145D01*
X132484847Y-98881604D01*
X132480500Y-98837462D01*
X132480500Y-96488538D01*
X132484847Y-96444396D01*
X132495932Y-96407855D01*
X132513931Y-96374180D01*
X132538159Y-96344659D01*
X132567680Y-96320431D01*
X132601355Y-96302432D01*
X132637896Y-96291347D01*
X132682038Y-96287000D01*
X133630962Y-96287000D01*
X133675104Y-96291347D01*
X133675104Y-96291347D01*
G37*
G36*
X131712604Y-96291347D02*
X131749145Y-96302432D01*
X131782820Y-96320431D01*
X131812341Y-96344659D01*
X131836569Y-96374180D01*
X131854568Y-96407855D01*
X131865653Y-96444396D01*
X131870000Y-96488538D01*
X131870000Y-98837462D01*
X131865653Y-98881604D01*
X131854568Y-98918145D01*
X131836569Y-98951820D01*
X131812341Y-98981341D01*
X131782820Y-99005569D01*
X131749145Y-99023568D01*
X131712604Y-99034653D01*
X131668462Y-99039000D01*
X130719538Y-99039000D01*
X130675396Y-99034653D01*
X130638855Y-99023568D01*
X130605180Y-99005569D01*
X130575659Y-98981341D01*
X130551431Y-98951820D01*
X130533432Y-98918145D01*
X130522347Y-98881604D01*
X130518000Y-98837462D01*
X130518000Y-96488538D01*
X130522347Y-96444396D01*
X130533432Y-96407855D01*
X130551431Y-96374180D01*
X130575659Y-96344659D01*
X130605180Y-96320431D01*
X130638855Y-96302432D01*
X130675396Y-96291347D01*
X130719538Y-96287000D01*
X131668462Y-96287000D01*
X131712604Y-96291347D01*
X131712604Y-96291347D01*
G37*
G36*
X128912604Y-96291347D02*
X128949145Y-96302432D01*
X128982820Y-96320431D01*
X129012341Y-96344659D01*
X129036569Y-96374180D01*
X129054568Y-96407855D01*
X129065653Y-96444396D01*
X129070000Y-96488538D01*
X129070000Y-98837462D01*
X129065653Y-98881604D01*
X129054568Y-98918145D01*
X129036569Y-98951820D01*
X129012341Y-98981341D01*
X128982820Y-99005569D01*
X128949145Y-99023568D01*
X128912604Y-99034653D01*
X128868462Y-99039000D01*
X127919538Y-99039000D01*
X127875396Y-99034653D01*
X127838855Y-99023568D01*
X127805180Y-99005569D01*
X127775659Y-98981341D01*
X127751431Y-98951820D01*
X127733432Y-98918145D01*
X127722347Y-98881604D01*
X127718000Y-98837462D01*
X127718000Y-96488538D01*
X127722347Y-96444396D01*
X127733432Y-96407855D01*
X127751431Y-96374180D01*
X127775659Y-96344659D01*
X127805180Y-96320431D01*
X127838855Y-96302432D01*
X127875396Y-96291347D01*
X127919538Y-96287000D01*
X128868462Y-96287000D01*
X128912604Y-96291347D01*
X128912604Y-96291347D01*
G37*
G36*
X139775604Y-97686847D02*
X139812145Y-97697932D01*
X139845820Y-97715931D01*
X139875341Y-97740159D01*
X139899569Y-97769680D01*
X139917568Y-97803355D01*
X139928653Y-97839896D01*
X139933000Y-97884038D01*
X139933000Y-98832962D01*
X139928653Y-98877104D01*
X139917568Y-98913645D01*
X139899569Y-98947320D01*
X139875341Y-98976841D01*
X139845820Y-99001069D01*
X139812145Y-99019068D01*
X139775604Y-99030153D01*
X139731462Y-99034500D01*
X137382538Y-99034500D01*
X137338396Y-99030153D01*
X137301855Y-99019068D01*
X137268180Y-99001069D01*
X137238659Y-98976841D01*
X137214431Y-98947320D01*
X137196432Y-98913645D01*
X137185347Y-98877104D01*
X137181000Y-98832962D01*
X137181000Y-97884038D01*
X137185347Y-97839896D01*
X137196432Y-97803355D01*
X137214431Y-97769680D01*
X137238659Y-97740159D01*
X137268180Y-97715931D01*
X137301855Y-97697932D01*
X137338396Y-97686847D01*
X137382538Y-97682500D01*
X139731462Y-97682500D01*
X139775604Y-97686847D01*
X139775604Y-97686847D01*
G37*
G36*
X114901000Y-98645000D02*
X113699000Y-98645000D01*
X113699000Y-97443000D01*
X114901000Y-97443000D01*
X114901000Y-98645000D01*
X114901000Y-98645000D01*
G37*
G36*
X112101000Y-98645000D02*
X110899000Y-98645000D01*
X110899000Y-97443000D01*
X112101000Y-97443000D01*
X112101000Y-98645000D01*
X112101000Y-98645000D01*
G37*
M02*
