%TF.GenerationSoftware,KiCad,Pcbnew,(5.0.2)-1*%
%TF.CreationDate,2019-03-05T14:35:33+01:00*%
%TF.ProjectId,ac-dc-converter-mp171,61632d64-632d-4636-9f6e-766572746572,rev?*%
%TF.SameCoordinates,Original*%
%TF.FileFunction,Legend,Bot*%
%TF.FilePolarity,Positive*%
%FSLAX46Y46*%
G04 Gerber Fmt 4.6, Leading zero omitted, Abs format (unit mm)*
G04 Created by KiCad (PCBNEW (5.0.2)-1) date 05/03/2019 14:35:33*
%MOMM*%
%LPD*%
G01*
G04 APERTURE LIST*
%ADD10C,0.300000*%
%ADD11C,0.120000*%
%ADD12C,0.150000*%
G04 APERTURE END LIST*
D10*
X139219285Y-99305000D02*
X138505000Y-99305000D01*
X139362142Y-99733571D02*
X138862142Y-98233571D01*
X138362142Y-99733571D01*
X137005000Y-99590714D02*
X137076428Y-99662142D01*
X137290714Y-99733571D01*
X137433571Y-99733571D01*
X137647857Y-99662142D01*
X137790714Y-99519285D01*
X137862142Y-99376428D01*
X137933571Y-99090714D01*
X137933571Y-98876428D01*
X137862142Y-98590714D01*
X137790714Y-98447857D01*
X137647857Y-98305000D01*
X137433571Y-98233571D01*
X137290714Y-98233571D01*
X137076428Y-98305000D01*
X137005000Y-98376428D01*
X136362142Y-99162142D02*
X135219285Y-99162142D01*
X134505000Y-99733571D02*
X134505000Y-98233571D01*
X134147857Y-98233571D01*
X133933571Y-98305000D01*
X133790714Y-98447857D01*
X133719285Y-98590714D01*
X133647857Y-98876428D01*
X133647857Y-99090714D01*
X133719285Y-99376428D01*
X133790714Y-99519285D01*
X133933571Y-99662142D01*
X134147857Y-99733571D01*
X134505000Y-99733571D01*
X132147857Y-99590714D02*
X132219285Y-99662142D01*
X132433571Y-99733571D01*
X132576428Y-99733571D01*
X132790714Y-99662142D01*
X132933571Y-99519285D01*
X133005000Y-99376428D01*
X133076428Y-99090714D01*
X133076428Y-98876428D01*
X133005000Y-98590714D01*
X132933571Y-98447857D01*
X132790714Y-98305000D01*
X132576428Y-98233571D01*
X132433571Y-98233571D01*
X132219285Y-98305000D01*
X132147857Y-98376428D01*
X129505000Y-99590714D02*
X129576428Y-99662142D01*
X129790714Y-99733571D01*
X129933571Y-99733571D01*
X130147857Y-99662142D01*
X130290714Y-99519285D01*
X130362142Y-99376428D01*
X130433571Y-99090714D01*
X130433571Y-98876428D01*
X130362142Y-98590714D01*
X130290714Y-98447857D01*
X130147857Y-98305000D01*
X129933571Y-98233571D01*
X129790714Y-98233571D01*
X129576428Y-98305000D01*
X129505000Y-98376428D01*
X128647857Y-99733571D02*
X128790714Y-99662142D01*
X128862142Y-99590714D01*
X128933571Y-99447857D01*
X128933571Y-99019285D01*
X128862142Y-98876428D01*
X128790714Y-98805000D01*
X128647857Y-98733571D01*
X128433571Y-98733571D01*
X128290714Y-98805000D01*
X128219285Y-98876428D01*
X128147857Y-99019285D01*
X128147857Y-99447857D01*
X128219285Y-99590714D01*
X128290714Y-99662142D01*
X128433571Y-99733571D01*
X128647857Y-99733571D01*
X127505000Y-98733571D02*
X127505000Y-99733571D01*
X127505000Y-98876428D02*
X127433571Y-98805000D01*
X127290714Y-98733571D01*
X127076428Y-98733571D01*
X126933571Y-98805000D01*
X126862142Y-98947857D01*
X126862142Y-99733571D01*
X126290714Y-98733571D02*
X125933571Y-99733571D01*
X125576428Y-98733571D01*
X124433571Y-99662142D02*
X124576428Y-99733571D01*
X124862142Y-99733571D01*
X125005000Y-99662142D01*
X125076428Y-99519285D01*
X125076428Y-98947857D01*
X125005000Y-98805000D01*
X124862142Y-98733571D01*
X124576428Y-98733571D01*
X124433571Y-98805000D01*
X124362142Y-98947857D01*
X124362142Y-99090714D01*
X125076428Y-99233571D01*
X123719285Y-99733571D02*
X123719285Y-98733571D01*
X123719285Y-99019285D02*
X123647857Y-98876428D01*
X123576428Y-98805000D01*
X123433571Y-98733571D01*
X123290714Y-98733571D01*
X123005000Y-98733571D02*
X122433571Y-98733571D01*
X122790714Y-98233571D02*
X122790714Y-99519285D01*
X122719285Y-99662142D01*
X122576428Y-99733571D01*
X122433571Y-99733571D01*
X121362142Y-99662142D02*
X121505000Y-99733571D01*
X121790714Y-99733571D01*
X121933571Y-99662142D01*
X122005000Y-99519285D01*
X122005000Y-98947857D01*
X121933571Y-98805000D01*
X121790714Y-98733571D01*
X121505000Y-98733571D01*
X121362142Y-98805000D01*
X121290714Y-98947857D01*
X121290714Y-99090714D01*
X122005000Y-99233571D01*
X120647857Y-99733571D02*
X120647857Y-98733571D01*
X120647857Y-99019285D02*
X120576428Y-98876428D01*
X120505000Y-98805000D01*
X120362142Y-98733571D01*
X120219285Y-98733571D01*
X118576428Y-99733571D02*
X118576428Y-98233571D01*
X118076428Y-99305000D01*
X117576428Y-98233571D01*
X117576428Y-99733571D01*
X116862142Y-99733571D02*
X116862142Y-98233571D01*
X116290714Y-98233571D01*
X116147857Y-98305000D01*
X116076428Y-98376428D01*
X116005000Y-98519285D01*
X116005000Y-98733571D01*
X116076428Y-98876428D01*
X116147857Y-98947857D01*
X116290714Y-99019285D01*
X116862142Y-99019285D01*
X114576428Y-99733571D02*
X115433571Y-99733571D01*
X115005000Y-99733571D02*
X115005000Y-98233571D01*
X115147857Y-98447857D01*
X115290714Y-98590714D01*
X115433571Y-98662142D01*
X114076428Y-98233571D02*
X113076428Y-98233571D01*
X113719285Y-99733571D01*
X111719285Y-99733571D02*
X112576428Y-99733571D01*
X112147857Y-99733571D02*
X112147857Y-98233571D01*
X112290714Y-98447857D01*
X112433571Y-98590714D01*
X112576428Y-98662142D01*
X137933571Y-101140714D02*
X138076428Y-101069285D01*
X138362142Y-101069285D01*
X138505000Y-101140714D01*
X138647857Y-101283571D01*
X138719285Y-101426428D01*
X138719285Y-101712142D01*
X138647857Y-101855000D01*
X138505000Y-101997857D01*
X138362142Y-102069285D01*
X138076428Y-102069285D01*
X137933571Y-101997857D01*
X138219285Y-100569285D02*
X138576428Y-100640714D01*
X138933571Y-100855000D01*
X139147857Y-101212142D01*
X139219285Y-101569285D01*
X139147857Y-101926428D01*
X138933571Y-102283571D01*
X138576428Y-102497857D01*
X138219285Y-102569285D01*
X137862142Y-102497857D01*
X137505000Y-102283571D01*
X137290714Y-101926428D01*
X137219285Y-101569285D01*
X137290714Y-101212142D01*
X137505000Y-100855000D01*
X137862142Y-100640714D01*
X138219285Y-100569285D01*
X136576428Y-102283571D02*
X136576428Y-100783571D01*
X136005000Y-100783571D01*
X135862142Y-100855000D01*
X135790714Y-100926428D01*
X135719285Y-101069285D01*
X135719285Y-101283571D01*
X135790714Y-101426428D01*
X135862142Y-101497857D01*
X136005000Y-101569285D01*
X136576428Y-101569285D01*
X135076428Y-102283571D02*
X135076428Y-101283571D01*
X135076428Y-101569285D02*
X135005000Y-101426428D01*
X134933571Y-101355000D01*
X134790714Y-101283571D01*
X134647857Y-101283571D01*
X133933571Y-102283571D02*
X134076428Y-102212142D01*
X134147857Y-102140714D01*
X134219285Y-101997857D01*
X134219285Y-101569285D01*
X134147857Y-101426428D01*
X134076428Y-101355000D01*
X133933571Y-101283571D01*
X133719285Y-101283571D01*
X133576428Y-101355000D01*
X133505000Y-101426428D01*
X133433571Y-101569285D01*
X133433571Y-101997857D01*
X133505000Y-102140714D01*
X133576428Y-102212142D01*
X133719285Y-102283571D01*
X133933571Y-102283571D01*
X132790714Y-101283571D02*
X132790714Y-102569285D01*
X132862142Y-102712142D01*
X133005000Y-102783571D01*
X133076428Y-102783571D01*
X132790714Y-100783571D02*
X132862142Y-100855000D01*
X132790714Y-100926428D01*
X132719285Y-100855000D01*
X132790714Y-100783571D01*
X132790714Y-100926428D01*
X131505000Y-102212142D02*
X131647857Y-102283571D01*
X131933571Y-102283571D01*
X132076428Y-102212142D01*
X132147857Y-102069285D01*
X132147857Y-101497857D01*
X132076428Y-101355000D01*
X131933571Y-101283571D01*
X131647857Y-101283571D01*
X131505000Y-101355000D01*
X131433571Y-101497857D01*
X131433571Y-101640714D01*
X132147857Y-101783571D01*
X130790714Y-102283571D02*
X130790714Y-100783571D01*
X130647857Y-101712142D02*
X130219285Y-102283571D01*
X130219285Y-101283571D02*
X130790714Y-101855000D01*
X129790714Y-101283571D02*
X129219285Y-101283571D01*
X129576428Y-100783571D02*
X129576428Y-102069285D01*
X129505000Y-102212142D01*
X129362142Y-102283571D01*
X129219285Y-102283571D01*
X128076428Y-102283571D02*
X128076428Y-101497857D01*
X128147857Y-101355000D01*
X128290714Y-101283571D01*
X128576428Y-101283571D01*
X128719285Y-101355000D01*
X128076428Y-102212142D02*
X128219285Y-102283571D01*
X128576428Y-102283571D01*
X128719285Y-102212142D01*
X128790714Y-102069285D01*
X128790714Y-101926428D01*
X128719285Y-101783571D01*
X128576428Y-101712142D01*
X128219285Y-101712142D01*
X128076428Y-101640714D01*
X127362142Y-101283571D02*
X127362142Y-102283571D01*
X127362142Y-101426428D02*
X127290714Y-101355000D01*
X127147857Y-101283571D01*
X126933571Y-101283571D01*
X126790714Y-101355000D01*
X126719285Y-101497857D01*
X126719285Y-102283571D01*
X126005000Y-102283571D02*
X126005000Y-100783571D01*
X125862142Y-101712142D02*
X125433571Y-102283571D01*
X125433571Y-101283571D02*
X126005000Y-101855000D01*
X124219285Y-102212142D02*
X124362142Y-102283571D01*
X124647857Y-102283571D01*
X124790714Y-102212142D01*
X124862142Y-102069285D01*
X124862142Y-101497857D01*
X124790714Y-101355000D01*
X124647857Y-101283571D01*
X124362142Y-101283571D01*
X124219285Y-101355000D01*
X124147857Y-101497857D01*
X124147857Y-101640714D01*
X124862142Y-101783571D01*
X123505000Y-102283571D02*
X123505000Y-101283571D01*
X123505000Y-101569285D02*
X123433571Y-101426428D01*
X123362142Y-101355000D01*
X123219285Y-101283571D01*
X123076428Y-101283571D01*
D11*
X143570000Y-97730000D02*
X142240000Y-97730000D01*
X143570000Y-99060000D02*
X143570000Y-97730000D01*
X143570000Y-100330000D02*
X140910000Y-100330000D01*
X140910000Y-100330000D02*
X140910000Y-100390000D01*
X143570000Y-100330000D02*
X143570000Y-100390000D01*
X143570000Y-100390000D02*
X140910000Y-100390000D01*
X143570000Y-105470000D02*
X140910000Y-105470000D01*
X143570000Y-105410000D02*
X143570000Y-105470000D01*
X140910000Y-105410000D02*
X140910000Y-105470000D01*
X143570000Y-105410000D02*
X140910000Y-105410000D01*
X143570000Y-104140000D02*
X143570000Y-102810000D01*
X143570000Y-102810000D02*
X142240000Y-102810000D01*
X107890000Y-102810000D02*
X110550000Y-102810000D01*
X107890000Y-102870000D02*
X107890000Y-102810000D01*
X110550000Y-102870000D02*
X110550000Y-102810000D01*
X107890000Y-102870000D02*
X110550000Y-102870000D01*
X107890000Y-104140000D02*
X107890000Y-105470000D01*
X107890000Y-105470000D02*
X109220000Y-105470000D01*
X107890000Y-97730000D02*
X110550000Y-97730000D01*
X107890000Y-97790000D02*
X107890000Y-97730000D01*
X110550000Y-97790000D02*
X110550000Y-97730000D01*
X107890000Y-97790000D02*
X110550000Y-97790000D01*
X107890000Y-99060000D02*
X107890000Y-100390000D01*
X107890000Y-100390000D02*
X109220000Y-100390000D01*
D12*
X141557333Y-96734380D02*
X141557333Y-97448666D01*
X141604952Y-97591523D01*
X141700190Y-97686761D01*
X141843047Y-97734380D01*
X141938285Y-97734380D01*
X141176380Y-96734380D02*
X140557333Y-96734380D01*
X140890666Y-97115333D01*
X140747809Y-97115333D01*
X140652571Y-97162952D01*
X140604952Y-97210571D01*
X140557333Y-97305809D01*
X140557333Y-97543904D01*
X140604952Y-97639142D01*
X140652571Y-97686761D01*
X140747809Y-97734380D01*
X141033523Y-97734380D01*
X141128761Y-97686761D01*
X141176380Y-97639142D01*
X141557333Y-101814380D02*
X141557333Y-102528666D01*
X141604952Y-102671523D01*
X141700190Y-102766761D01*
X141843047Y-102814380D01*
X141938285Y-102814380D01*
X140652571Y-102147714D02*
X140652571Y-102814380D01*
X140890666Y-101766761D02*
X141128761Y-102481047D01*
X140509714Y-102481047D01*
X110569333Y-105624380D02*
X110569333Y-106338666D01*
X110616952Y-106481523D01*
X110712190Y-106576761D01*
X110855047Y-106624380D01*
X110950285Y-106624380D01*
X110140761Y-105719619D02*
X110093142Y-105672000D01*
X109997904Y-105624380D01*
X109759809Y-105624380D01*
X109664571Y-105672000D01*
X109616952Y-105719619D01*
X109569333Y-105814857D01*
X109569333Y-105910095D01*
X109616952Y-106052952D01*
X110188380Y-106624380D01*
X109569333Y-106624380D01*
X110315333Y-100544380D02*
X110315333Y-101258666D01*
X110362952Y-101401523D01*
X110458190Y-101496761D01*
X110601047Y-101544380D01*
X110696285Y-101544380D01*
X109315333Y-101544380D02*
X109886761Y-101544380D01*
X109601047Y-101544380D02*
X109601047Y-100544380D01*
X109696285Y-100687238D01*
X109791523Y-100782476D01*
X109886761Y-100830095D01*
M02*
